<svg xmlns="http://www.w3.org/2000/svg" width="1024" height="1024" viewBox="0 0 1024 1024">
  <defs>
    <linearGradient id="background" x1="0" y1="0" x2="1" y2="1">
      <stop offset="0%" stop-color="#111111"/>
      <stop offset="100%" stop-color="#000000"/>
    </linearGradient>
    <radialGradient id="glow" cx="50%" cy="36%" r="68%">
      <stop offset="0%" stop-color="#252525" stop-opacity="0.7"/>
      <stop offset="100%" stop-color="#000000" stop-opacity="0"/>
    </radialGradient>
  </defs>

  <rect width="1024" height="1024" rx="220" fill="url(#background)"/>
  <rect width="1024" height="1024" rx="220" fill="url(#glow)"/>

  <!-- Thick filled headband with an open gap above the book. -->
  <path d="M512 116C318 116 168 264 168 458H258C258 316 368 206 512 206C656 206 766 316 766 458H856C856 264 706 116 512 116Z" fill="#ff7a00"/>

  <!-- Padded headphone ear cups, kept broad enough to read at small sizes. -->
  <rect x="168" y="398" width="124" height="318" rx="62" fill="#ff7a00"/>
  <rect x="732" y="398" width="124" height="318" rx="62" fill="#ff7a00"/>
  <rect x="194" y="448" width="72" height="218" rx="36" fill="#121212"/>
  <rect x="758" y="448" width="72" height="218" rx="36" fill="#121212"/>

  <!-- Thick open-book pages. -->
  <path d="M512 458C454 414 390 392 318 392V704C394 698 459 719 512 760Z" fill="#ffffff"/>
  <path d="M512 458C570 414 634 392 706 392V704C630 698 565 719 512 760Z" fill="#ffffff"/>

  <!-- Shifted left slightly so the triangular mass is visually centered. -->
  <path d="M454 494C454 474 476 462 493 472L603 537C620 547 620 571 603 581L493 646C476 656 454 644 454 624Z" fill="#ff7a00"/>
</svg>
